<svg width="153" height="178" viewBox="0 0 153 178" fill="none" xmlns="http://www.w3.org/2000/svg">
<path d="M76.38 0L0 48.2V128.86L76.38 177.06L152.76 128.86V48.2L76.38 0ZM132.63 118.23L76.38 153.73L20.13 118.23V58.83L76.38 23.33L132.63 58.83V118.23Z" fill="#1FCFB8"/>
<path d="M62.76 126.79C65.3778 126.79 67.5 124.668 67.5 122.05C67.5 119.432 65.3778 117.31 62.76 117.31C60.1422 117.31 58.02 119.432 58.02 122.05C58.02 124.668 60.1422 126.79 62.76 126.79Z" stroke="#CDCCCC" stroke-width="3.55" stroke-miterlimit="10"/>
<path d="M107.76 85.93C110.704 85.93 113.09 83.5437 113.09 80.6C113.09 77.6563 110.704 75.27 107.76 75.27C104.816 75.27 102.43 77.6563 102.43 80.6C102.43 83.5437 104.816 85.93 107.76 85.93Z" stroke="#CDCCCC" stroke-width="3.55" stroke-miterlimit="10"/>
<path d="M59.21 90.29C63.9044 90.29 67.71 86.4845 67.71 81.79C67.71 77.0956 63.9044 73.29 59.21 73.29C54.5155 73.29 50.71 77.0956 50.71 81.79C50.71 86.4845 54.5155 90.29 59.21 90.29Z" stroke="#CDCCCC" stroke-width="5" stroke-miterlimit="10"/>
<path d="M59 90.1899L61.96 117.39" stroke="#CDCCCC" stroke-width="3.55" stroke-miterlimit="10"/>
<path d="M102.43 81.79L68 82.19" stroke="#CDCCCC" stroke-width="3.55" stroke-miterlimit="10"/>
<path d="M84.24 98.37H81L79.78 97.15C83.9813 92.4664 86.2972 86.3917 86.28 80.1C86.28 74.8805 84.7323 69.7783 81.8325 65.4385C78.9327 61.0987 74.8112 57.7162 69.989 55.7188C65.1669 53.7214 59.8607 53.1988 54.7416 54.217C49.6224 55.2353 44.9202 57.7487 41.2295 61.4394C37.5388 65.1301 35.0254 69.8324 34.0071 74.9515C32.9888 80.0707 33.5114 85.3768 35.5088 90.199C37.5062 95.0211 40.8887 99.1427 45.2285 102.042C49.5683 104.942 54.6706 106.49 59.89 106.49C66.177 106.507 72.2475 104.195 76.93 100L78.15 101.22V104.47L98.45 124.77L104.54 118.68L84.24 98.37ZM59.88 98.37C56.2665 98.37 52.7342 97.2985 49.7297 95.2909C46.7253 93.2834 44.3835 90.43 43.0007 87.0916C41.6179 83.7532 41.2561 80.0797 41.9611 76.5357C42.666 72.9916 44.4061 69.7362 46.9612 67.1811C49.5163 64.626 52.7717 62.886 56.3157 62.181C59.8597 61.4761 63.5332 61.8379 66.8716 63.2207C70.21 64.6035 73.0634 66.9452 75.071 69.9497C77.0785 72.9542 78.15 76.4865 78.15 80.1C78.1606 82.5022 77.6953 84.8827 76.7809 87.1041C75.8665 89.3255 74.5211 91.3438 72.8225 93.0424C71.1238 94.7411 69.1055 96.0864 66.8841 97.0008C64.6627 97.9152 62.2822 98.3806 59.88 98.37Z" fill="#1FCFB8"/>
<path d="M152.76 48.1001L132.63 58.7301V118.24L75.79 154.11V177.38L152.76 128.81V48.1001Z" fill="#009883"/>
</svg>
