<svg width="783" height="177" viewBox="0 0 783 177" fill="none" xmlns="http://www.w3.org/2000/svg">
<path d="M64.7592 55.7401L88.1292 120.87H97.6292V131.52H63.2892V119.68H74.1992L67.7192 100.74H37.4192L30.9492 119.68H40.8092V131.52H6.44922V120.87H16.8692L40.1292 55.7401H30.1292V45.0801H75.1292V55.7401H64.7592ZM52.7592 55.7401H52.3592L40.1192 91.2601H64.7192L52.7592 55.7401Z" fill="#CDCCCC"/>
<path d="M168.089 101.68C168.119 107.181 166.818 112.609 164.299 117.5C161.94 122.222 158.368 126.232 153.949 129.12C149.644 131.944 144.598 133.427 139.449 133.38C131.616 133.38 124.773 130.273 118.919 124.06V148.06H130.759V157.54H96.4492V148.1H107.099V81.7898H97.6292V71.1298H118.949V80.7998C121.539 77.5159 124.802 74.8254 128.519 72.9098C131.994 71.1912 135.823 70.3077 139.699 70.3298C144.925 70.2435 150.059 71.7123 154.449 74.5498C158.767 77.3947 162.238 81.3499 164.499 85.9998C166.906 90.8736 168.136 96.2442 168.089 101.68ZM140.199 122.06C143.38 122.092 146.485 121.092 149.049 119.21C151.758 117.212 153.887 114.531 155.219 111.44C156.705 108.178 157.466 104.634 157.449 101.05C157.472 97.4986 156.613 93.9973 154.949 90.8598C153.392 87.8353 151.068 85.273 148.209 83.4298C145.334 81.5794 141.978 80.6161 138.559 80.6598C135.008 80.6224 131.526 81.6461 128.559 83.5998C125.611 85.5448 123.23 88.2361 121.659 91.3998C120.001 94.7133 119.158 98.3747 119.199 102.08C119.199 108.32 121.169 113.21 125.109 116.75C129.049 120.29 134.079 122.06 140.199 122.06Z" fill="#CDCCCC"/>
<path d="M229.069 92.4998V120.87H238.549V131.52H218.419V124.16C212.779 129.753 206.499 132.55 199.579 132.55C196.078 132.589 192.628 131.703 189.579 129.98C186.616 128.331 184.113 125.966 182.299 123.1C180.466 120.14 179.519 116.718 179.571 113.237C179.622 109.757 180.67 106.364 182.589 103.46C184.628 100.482 187.443 98.1201 190.729 96.6298C193.955 95.0844 197.482 94.2684 201.059 94.2398C206.854 94.2374 212.508 96.0333 217.239 99.3798V92.7298C217.239 87.9498 216.239 84.5265 214.239 82.4598C212.239 80.3932 208.906 79.3632 204.239 79.3698C201.404 79.2775 198.59 79.8891 196.049 81.1498C193.77 82.4171 191.881 84.2847 190.589 86.5498L179.039 83.6898C181.393 79.0899 185.071 75.3004 189.599 72.8098C194.487 70.3131 199.922 69.079 205.409 69.2198C213.616 69.2198 219.616 71.0865 223.409 74.8198C227.202 78.5532 229.089 84.4465 229.069 92.4998ZM200.949 123C206.729 123 212.152 120.583 217.219 115.75V108.75C212.079 104.75 206.942 102.75 201.809 102.75C198.844 102.69 195.963 103.739 193.729 105.69C192.699 106.584 191.866 107.682 191.281 108.914C190.697 110.147 190.374 111.487 190.334 112.851C190.294 114.214 190.536 115.571 191.047 116.836C191.557 118.101 192.324 119.246 193.299 120.2C195.378 122.109 198.129 123.116 200.949 123Z" fill="#CDCCCC"/>
<path d="M291.839 75.4298V71.1298H302.489V93.6298H291.839C291.718 91.6899 291.179 89.7992 290.259 88.087C289.339 86.3748 288.06 84.8817 286.509 83.7098C283.408 81.4254 279.641 80.2238 275.789 80.2898C272.473 80.2433 269.217 81.1868 266.439 82.9998C263.669 84.8123 261.454 87.3561 260.039 90.3498C258.517 93.5042 257.744 96.9674 257.779 100.47C257.779 106.69 259.476 111.766 262.869 115.7C264.52 117.633 266.587 119.168 268.914 120.192C271.241 121.215 273.769 121.7 276.309 121.61C284.923 121.61 291.006 117.71 294.559 109.91L304.559 114.55C298.959 126.376 289.383 132.293 275.829 132.3C270.162 132.401 264.574 130.953 259.669 128.11C255.022 125.391 251.236 121.415 248.749 116.64C246.148 111.651 244.825 106.095 244.899 100.47C244.829 94.9457 246.175 89.4957 248.809 84.6398C251.297 80.0174 255.014 76.1726 259.549 73.5298C264.178 70.8524 269.442 69.4707 274.789 69.5298C280.995 69.3983 287.043 71.491 291.839 75.4298Z" fill="#CDCCCC"/>
<path d="M354.349 69.5201C365.569 69.5201 371.179 75.5534 371.179 87.6201V120.87H381.839V131.52H359.339V92.2401C359.339 87.9401 358.709 84.9101 357.469 83.1601C356.801 82.2723 355.921 81.5663 354.91 81.1068C353.898 80.6474 352.787 80.449 351.679 80.5301C347.266 80.5301 341.529 83.1001 334.469 88.2401V120.87H345.129V131.52H311.949V120.87H322.609V55.7401H311.949V45.0801H334.449V78.1401C341.583 72.3934 348.216 69.5201 354.349 69.5201Z" fill="#CDCCCC"/>
<path d="M451.639 104.29H401.329C402.063 110.043 404.289 114.583 408.009 117.91C411.779 121.256 416.68 123.044 421.719 122.91C425.525 122.941 429.287 122.103 432.719 120.46C436.181 118.756 439.121 116.151 441.229 112.92L451.619 117.6C448.489 122.583 444.028 126.59 438.739 129.17C433.342 131.794 427.41 133.132 421.409 133.08C415.418 133.186 409.496 131.783 404.189 129C399.286 126.419 395.216 122.501 392.449 117.7C389.717 112.7 388.285 107.093 388.285 101.395C388.285 95.6969 389.717 90.0902 392.449 85.0901C395.12 80.3492 399.039 76.4307 403.779 73.7601C408.759 71.0636 414.336 69.6607 419.998 69.6799C425.661 69.6991 431.228 71.1399 436.189 73.8701C440.951 76.7386 444.8 80.8999 447.289 85.8701C450.109 91.6039 451.596 97.9007 451.639 104.29ZM419.829 79.6701C415.501 79.6195 411.317 81.2217 408.129 84.1501C404.71 87.2641 402.438 91.438 401.679 96.0001H439.249C438.322 91.3727 435.854 87.1959 432.249 84.1501C428.789 81.2019 424.375 79.61 419.829 79.6701Z" fill="#CDCCCC"/>
<path d="M541.949 55.7401L565.319 120.87H574.819V131.52H540.519V119.68H551.429L544.949 100.74H514.639L508.159 119.68H518.019V131.52H483.679V120.87H494.099L517.359 55.7401H507.359V45.0801H552.359V55.7401H541.949ZM529.609 55.7401H529.209L516.999 91.2601H541.609L529.609 55.7401Z" fill="#1FCFB8" stroke="#1FCFB8" stroke-width="1.18" stroke-miterlimit="10"/>
<path d="M610.379 71.13V81.79H599.729V113.53C599.729 116.83 600.062 118.97 600.729 119.95C601.148 120.47 601.69 120.877 602.307 121.134C602.924 121.391 603.595 121.489 604.259 121.42C606.341 121.409 608.405 121.037 610.359 120.32V130.43C607.53 131.348 604.59 131.88 601.619 132.01C596.739 132.01 593.226 130.78 591.079 128.32C588.932 125.86 587.862 121.64 587.869 115.66V81.79H579.579V71.13H586.679V62L599.679 51.21V71.13H610.379Z" fill="#1FCFB8" stroke="#1FCFB8" stroke-width="1.18" stroke-miterlimit="10"/>
<path d="M651.829 120.87V131.52H619.829V120.87H630.489V55.7401H619.859V45.0801H642.359V120.87H651.829Z" fill="#1FCFB8" stroke="#1FCFB8" stroke-width="1.18" stroke-miterlimit="10"/>
<path d="M712.229 92.4998V120.87H721.699V131.52H701.569V124.16C695.929 129.753 689.653 132.55 682.739 132.55C679.238 132.588 675.788 131.702 672.739 129.98C669.779 128.331 667.279 125.965 665.469 123.1C663.638 120.14 662.692 116.719 662.742 113.239C662.791 109.759 663.835 106.366 665.749 103.46C667.805 100.475 670.642 98.1122 673.949 96.6298C677.168 95.0835 680.688 94.2674 684.259 94.2398C690.051 94.2395 695.701 96.0353 700.429 99.3798V92.7298C700.429 87.9498 699.429 84.5265 697.429 82.4598C695.429 80.3932 692.096 79.3632 687.429 79.3698C684.591 79.2763 681.773 79.8878 679.229 81.1498C676.951 82.4148 675.065 84.2832 673.779 86.5498L662.219 83.6898C664.574 79.0899 668.252 75.3004 672.779 72.8098C677.667 70.3131 683.102 69.079 688.589 69.2198C696.796 69.2198 702.796 71.0865 706.589 74.8198C710.383 78.5532 712.263 84.4465 712.229 92.4998ZM684.109 123C689.903 123 695.326 120.583 700.379 115.75V108.75C695.246 104.75 690.109 102.75 684.969 102.75C682.004 102.69 679.123 103.739 676.889 105.69C675.859 106.584 675.026 107.682 674.441 108.914C673.857 110.147 673.534 111.487 673.494 112.851C673.454 114.214 673.696 115.571 674.207 116.836C674.717 118.101 675.484 119.246 676.459 120.2C678.538 122.109 681.289 123.116 684.109 123Z" fill="#1FCFB8" stroke="#1FCFB8" stroke-width="1.18" stroke-miterlimit="10"/>
<path d="M766.699 73.32V71.13H777.359V91.26H766.699V87.61C765.216 85.2927 763.16 83.397 760.731 82.106C758.301 80.8149 755.579 80.1723 752.829 80.24C750.156 80.1242 747.514 80.8443 745.269 82.3C744.368 82.8615 743.626 83.6442 743.113 84.5737C742.6 85.5032 742.334 86.5484 742.339 87.61C742.306 88.4954 742.491 89.3754 742.878 90.1724C743.265 90.9694 743.842 91.6588 744.559 92.18C746.052 93.28 749.386 94.25 754.559 95.09L762.399 96.63C774.099 98.8033 779.949 104.61 779.949 114.05C780.025 116.612 779.488 119.156 778.384 121.469C777.28 123.782 775.639 125.798 773.599 127.35C769.379 130.683 763.769 132.35 756.769 132.35C753.99 132.349 751.226 131.935 748.569 131.12C746.183 130.44 743.911 129.409 741.829 128.06V130.31H731.169V110.21H741.829V112.26C742.098 113.692 742.659 115.052 743.478 116.257C744.297 117.461 745.356 118.484 746.589 119.26C749.29 121.037 752.466 121.954 755.699 121.89C759.499 121.89 762.499 121.223 764.699 119.89C765.737 119.281 766.59 118.401 767.167 117.344C767.743 116.287 768.02 115.093 767.969 113.89C767.999 112.989 767.77 112.099 767.309 111.324C766.849 110.549 766.175 109.923 765.369 109.52C763.649 108.553 760.172 107.553 754.939 106.52L748.939 105.21C742.939 103.99 738.559 101.897 735.799 98.93C732.973 95.8328 731.476 91.75 731.629 87.56C731.533 84.1167 732.617 80.7439 734.699 78C736.746 75.3399 739.462 73.2697 742.569 72C745.689 70.6828 749.042 70.0028 752.429 70C758.069 70 762.826 71.1067 766.699 73.32Z" fill="#1FCFB8" stroke="#1FCFB8" stroke-width="1.18" stroke-miterlimit="10"/>
</svg>
