<svg width="20" height="20" viewBox="0 0 20 20" fill="none" xmlns="http://www.w3.org/2000/svg">
<path d="M9.16665 16.6668C8.93054 16.6668 8.73262 16.587 8.5729 16.4272C8.41318 16.2675 8.33332 16.0696 8.33332 15.8335V10.8335L3.49999 4.66683C3.29165 4.38905 3.2604 4.09738 3.40624 3.79183C3.55207 3.48627 3.80554 3.3335 4.16665 3.3335H15.8333C16.1944 3.3335 16.4479 3.48627 16.5937 3.79183C16.7396 4.09738 16.7083 4.38905 16.5 4.66683L11.6667 10.8335V15.8335C11.6667 16.0696 11.5868 16.2675 11.4271 16.4272C11.2673 16.587 11.0694 16.6668 10.8333 16.6668H9.16665ZM9.99998 10.2502L14.125 5.00016H5.87499L9.99998 10.2502Z" fill="white"/>
</svg>
