<svg width="20" height="20" viewBox="0 0 20 20" fill="none" xmlns="http://www.w3.org/2000/svg">
<path d="M6.25004 18.3332C5.44448 18.3332 4.75699 18.0484 4.18754 17.479C3.6181 16.9096 3.33337 16.2221 3.33337 15.4165V4.58317C3.33337 3.77761 3.6181 3.09011 4.18754 2.52067C4.75699 1.95123 5.44448 1.6665 6.25004 1.6665H16.6667V14.1665C16.3195 14.1665 16.0243 14.288 15.7813 14.5311C15.5382 14.7741 15.4167 15.0693 15.4167 15.4165C15.4167 15.7637 15.5382 16.0589 15.7813 16.3019C16.0243 16.545 16.3195 16.6665 16.6667 16.6665V18.3332H6.25004ZM5.00004 12.7707C5.19449 12.6734 5.39587 12.604 5.60421 12.5623C5.81254 12.5207 6.02782 12.4998 6.25004 12.4998H6.66671V3.33317H6.25004C5.90282 3.33317 5.60768 3.4547 5.36462 3.69775C5.12157 3.94081 5.00004 4.23595 5.00004 4.58317V12.7707ZM8.33337 12.4998H15V3.33317H8.33337V12.4998ZM6.25004 16.6665H14.0209C13.9375 16.4721 13.8716 16.2741 13.823 16.0728C13.7743 15.8714 13.75 15.6526 13.75 15.4165C13.75 15.1943 13.7709 14.979 13.8125 14.7707C13.8542 14.5623 13.9237 14.3609 14.0209 14.1665H6.25004C5.88893 14.1665 5.59032 14.288 5.35421 14.5311C5.1181 14.7741 5.00004 15.0693 5.00004 15.4165C5.00004 15.7776 5.1181 16.0762 5.35421 16.3123C5.59032 16.5484 5.88893 16.6665 6.25004 16.6665Z" fill="white"/>
</svg>
