<svg width="20" height="20" viewBox="0 0 20 20" fill="none" xmlns="http://www.w3.org/2000/svg">
<path d="M17.8333 11.8748L11.875 17.8332C11.7083 17.9998 11.5208 18.1248 11.3125 18.2082C11.1041 18.2915 10.8958 18.3332 10.6875 18.3332C10.4791 18.3332 10.2708 18.2915 10.0625 18.2082C9.85413 18.1248 9.66663 17.9998 9.49996 17.8332L2.14579 10.479C1.99301 10.3262 1.87496 10.1491 1.79163 9.94775C1.70829 9.74636 1.66663 9.53456 1.66663 9.31234V3.33317C1.66663 2.87484 1.82982 2.48248 2.15621 2.15609C2.4826 1.8297 2.87496 1.6665 3.33329 1.6665H9.31246C9.53468 1.6665 9.74996 1.71164 9.95829 1.80192C10.1666 1.8922 10.3472 2.01373 10.5 2.1665L17.8333 9.52067C18 9.68734 18.1215 9.87484 18.1979 10.0832C18.2743 10.2915 18.3125 10.4998 18.3125 10.7082C18.3125 10.9165 18.2743 11.1214 18.1979 11.3228C18.1215 11.5241 18 11.7082 17.8333 11.8748ZM10.6875 16.6665L16.6458 10.7082L9.29163 3.33317H3.33329V9.2915L10.6875 16.6665ZM5.41663 6.6665C5.76385 6.6665 6.05899 6.54498 6.30204 6.30192C6.5451 6.05886 6.66663 5.76373 6.66663 5.4165C6.66663 5.06928 6.5451 4.77414 6.30204 4.53109C6.05899 4.28803 5.76385 4.1665 5.41663 4.1665C5.0694 4.1665 4.77427 4.28803 4.53121 4.53109C4.28815 4.77414 4.16663 5.06928 4.16663 5.4165C4.16663 5.76373 4.28815 6.05886 4.53121 6.30192C4.77427 6.54498 5.0694 6.6665 5.41663 6.6665Z" fill="white"/>
</svg>
