<svg width="20" height="20" viewBox="0 0 20 20" fill="none" xmlns="http://www.w3.org/2000/svg">
<path d="M3.4375 17.3125C3.00778 17.3125 2.63993 17.1595 2.33396 16.8535C2.02799 16.5476 1.875 16.1797 1.875 15.75V4.25C1.875 3.82028 2.02799 3.45243 2.33396 3.14646C2.63993 2.84049 3.00778 2.6875 3.4375 2.6875H16.5625C16.9922 2.6875 17.3601 2.84049 17.666 3.14646C17.972 3.45243 18.125 3.82028 18.125 4.25V15.75C18.125 16.1797 17.972 16.5476 17.666 16.8535C17.3601 17.1595 16.9922 17.3125 16.5625 17.3125H3.4375ZM3.4375 15.75H16.5625V4.25H3.4375V15.75ZM4.6875 14.1667H8.64583V12.5H4.6875V14.1667ZM12.125 12.3958L16.0417 8.47917L14.8542 7.29167L12.125 10.0417L10.9375 8.85417L9.77083 10.0417L12.125 12.3958ZM4.6875 10.8333H8.64583V9.16667H4.6875V10.8333ZM4.6875 7.5H8.64583V5.83333H4.6875V7.5Z" fill="white"/>
</svg>
